# xmcd CD database file
#
# Track frame offsets:
#	150
#	6657
#	16576
#	28577
#	38347
#	47479
#	62620
#	75043
#	83903
#	93231
#	101032
#	112301
#
# Disc length: 1623 seconds
#
# Revision: 0
# Processed by: cddbd v1.5PL3 Copyright (c) Steve Scherf et al.
# Submitted via: CDex 1.51
#
DISCID=7f06550c
DTITLE=Tall Brothers - Reefer Blues
DYEAR=2004
DGENRE=Blues
TTITLE0=Jive Cake Stuffin'
TTITLE1=Hit That Jive Jack
TTITLE2=Sweet Marijuana Brown
TTITLE3=Jack I'm Mellow
TTITLE4=All The Jive Is Gone
TTITLE5=Here Comes The Man With The Jive
TTITLE6=Weed
TTITLE7=The Stuff Is Here
TTITLE8=Viper Mad
TTITLE9=The Toker's Bowl
TTITLE10=Viper Drag
TTITLE11=Save The Roach
EXTD=YEAR: 2004
EXTT0=
EXTT1=
EXTT2=
EXTT3=
EXTT4=
EXTT5=
EXTT6=
EXTT7=
EXTT8=
EXTT9=
EXTT10=
EXTT11=
PLAYORDER=
